Coordinates
version=1
nRows=17
nColumns=40
inDegrees=yes

Units are S.I. units (second, meters, Newtons, ...)
If the header above contains a line with 'inDegrees', this indicates whether rotational values are in degrees (yes) or radians (no).

endheader
time	pelvis_tilt	pelvis_list	pelvis_rotation	pelvis_tx	pelvis_ty	pelvis_tz	hip_flexion_r	hip_adduction_r	hip_rotation_r	knee_angle_r	knee_angle_r_beta	ankle_angle_r	subtalar_angle_r	mtp_angle_r	hip_flexion_l	hip_adduction_l	hip_rotation_l	knee_angle_l	knee_angle_l_beta	ankle_angle_l	subtalar_angle_l	mtp_angle_l	lumbar_extension	lumbar_bending	lumbar_rotation	arm_flex_r	arm_add_r	arm_rot_r	elbow_flex_r	pro_sup_r	wrist_flex_r	wrist_dev_r	arm_flex_l	arm_add_l	arm_rot_l	elbow_flex_l	pro_sup_l	wrist_flex_l	wrist_dev_l
      0.81000000	      2.03798888	     10.38774039	    -89.92514198	      0.27477763	      0.95745889	      0.54339498	     23.81506444	     -4.68129398	     -8.33522431	     61.15478620	      1.06735237	      0.09231657	      0.00000000	      0.00000000	     21.46990422	      5.51610454	      5.37587566	     20.50642334	      0.35790461	      4.27104542	      0.00000000	      0.00000000	      4.22308178	     -1.86938313	     -2.12965900	      0.00000000	      0.00000000	      0.00000000	      0.00000000	      0.00000000	      0.00000000	      0.00000000	      0.00000000	      0.00000000	      0.00000000	      0.00000000	      0.00000000	      0.00000000	      0.00000000
      0.82000000	      1.46632714	     10.86191396	    -89.92499111	      0.27458908	      0.96015823	      0.56300991	     26.26135440	     -4.03424148	     -8.62016912	     59.43620776	      1.03735752	      2.06541572	      0.00000000	      0.00000000	     19.80645445	      4.83821691	      5.56454360	     18.86104951	      0.32918741	      4.28155374	      0.00000000	      0.00000000	      4.76295017	     -1.07544273	     -2.29866058	      0.00000000	      0.00000000	      0.00000000	      0.00000000	      0.00000000	      0.00000000	      0.00000000	      0.00000000	      0.00000000	      0.00000000	      0.00000000	      0.00000000	      0.00000000	      0.00000000
      0.83000000	      0.94491368	     11.34020901	    -89.92398593	      0.27431020	      0.96217380	      0.58264752	     28.54629593	     -3.41988668	     -8.89541944	     57.24901840	      0.99918386	      3.43203478	      0.00000000	      0.00000000	     18.16723131	      4.21781291	      5.74200935	     17.23278440	      0.30076883	      4.30140330	      0.00000000	      0.00000000	      5.29148656	     -0.36258815	     -2.44927227	      0.00000000	      0.00000000	      0.00000000	      0.00000000	      0.00000000	      0.00000000	      0.00000000	      0.00000000	      0.00000000	      0.00000000	      0.00000000	      0.00000000	      0.00000000	      0.00000000
      0.84000000	      0.52482816	     11.75255574	    -89.92204451	      0.27400224	      0.96350836	      0.60233076	     30.61388013	     -2.90860569	     -9.15896141	     54.69070131	      0.95453281	      4.40932393	      0.00000000	      0.00000000	     16.48441553	      3.70074968	      5.78621019	     15.63439959	      0.27287175	      4.27467315	      0.00000000	      0.00000000	      5.72950220	      0.22685578	     -2.58937424	      0.00000000	      0.00000000	      0.00000000	      0.00000000	      0.00000000	      0.00000000	      0.00000000	      0.00000000	      0.00000000	      0.00000000	      0.00000000	      0.00000000	      0.00000000	      0.00000000
      0.85000000	      0.21836733	     12.13465784	    -89.91951542	      0.27368677	      0.96406182	      0.62201382	     32.51920736	     -2.51159648	     -9.39812392	     51.80253320	      0.90412477	      5.01340373	      0.00000000	      0.00000000	     14.80876940	      3.31711538	      5.75366169	     14.09765863	      0.24605056	      4.31509201	      0.00000000	      0.00000000	      6.10843579	      0.66439493	     -2.71512319	      0.00000000	      0.00000000	      0.00000000	      0.00000000	      0.00000000	      0.00000000	      0.00000000	      0.00000000	      0.00000000	      0.00000000	      0.00000000	      0.00000000	      0.00000000	      0.00000000
      0.86000000	      0.04077947	     12.15777477	    -89.91580321	      0.27342737	      0.96431385	      0.64194903	     33.85970544	     -2.27662415	     -9.68352838	     48.55109969	      0.84737655	      5.21325419	      0.00000000	      0.00000000	     12.70161536	      3.09200908	      5.70114734	     12.47391490	      0.21771089	      4.22456340	      0.00000000	      0.00000000	      6.04480212	      0.96014997	     -2.81249261	      0.00000000	      0.00000000	      0.00000000	      0.00000000	      0.00000000	      0.00000000	      0.00000000	      0.00000000	      0.00000000	      0.00000000	      0.00000000	      0.00000000	      0.00000000	      0.00000000
      0.87000000	     -0.02061156	     12.22058417	    -89.91054513	      0.27315254	      0.96361201	      0.66181746	     35.15220628	     -2.14912044	     -9.93810111	     45.07448662	      0.78669820	      5.18652673	      0.00000000	      0.00000000	     10.70863963	      3.00171933	      5.58532944	     10.98612716	      0.19174409	      4.27356119	      0.00000000	      0.00000000	      6.00789662	      1.10720776	     -2.89902611	      0.00000000	      0.00000000	      0.00000000	      0.00000000	      0.00000000	      0.00000000	      0.00000000	      0.00000000	      0.00000000	      0.00000000	      0.00000000	      0.00000000	      0.00000000	      0.00000000
      0.88000000	      0.03224559	     12.14104193	    -89.90333121	      0.27289299	      0.96226026	      0.68174818	     36.17934512	     -2.14973799	    -10.22479734	     41.37354639	      0.72210461	      5.01292585	     -0.00000000	     -0.00000000	      8.57413759	      3.04733266	      5.48562138	      9.53269977	      0.16637700	      4.36453005	     -0.00000000	      0.00000000	      5.78067722	      1.11450905	     -2.96218269	      0.00000000	     -0.00000000	     -0.00000000	      0.00000000	      0.00000000	     -0.00000000	      0.00000000	      0.00000000	     -0.00000000	      0.00000000	      0.00000000	      0.00000000	      0.00000000	      0.00000000
      0.89000000	      0.18482443	     11.94916520	    -89.89367281	      0.27261137	      0.96025053	      0.70174156	     36.98830650	     -2.24836247	    -10.53832400	     37.49840473	      0.65447063	      4.75856599	      0.00000000	      0.00000000	      6.33303116	      3.20286170	      5.40771676	      8.12568393	      0.14181994	      4.49784554	      0.00000000	      0.00000000	      5.40489682	      0.99605006	     -3.00264814	      0.00000000	      0.00000000	      0.00000000	      0.00000000	      0.00000000	      0.00000000	      0.00000000	      0.00000000	      0.00000000	      0.00000000	      0.00000000	      0.00000000	      0.00000000	      0.00000000
      0.90000000	      0.41440729	     11.81072908	    -89.88106552	      0.27227232	      0.95740429	      0.72166466	     37.78169839	     -2.39695411	    -10.80464490	     33.50474325	      0.58476808	      4.51102049	      0.00000000	      0.00000000	      4.22033856	      3.43437257	      5.33431257	      6.87136382	      0.11992792	      4.72186879	      0.00000000	      0.00000000	      5.06301700	      0.78545001	     -3.00506695	      0.00000000	      0.00000000	      0.00000000	      0.00000000	      0.00000000	      0.00000000	      0.00000000	      0.00000000	      0.00000000	      0.00000000	      0.00000000	      0.00000000	      0.00000000	      0.00000000
      0.91000000	      0.72868479	     11.22078716	    -89.86167707	      0.27190418	      0.95452627	      0.74196123	     37.98376589	     -2.64525193	    -11.19746648	     29.45066589	      0.51401109	      4.27043356	      0.00000000	     -0.00000000	      1.50904937	      3.75251365	      5.42924240	      5.45026459	      0.09512506	      4.83525418	     -0.00000000	     -0.00000000	      4.20746973	      0.46549224	     -3.02677580	      0.00000000	     -0.00000000	      0.00000000	      0.00000000	      0.00000000	      0.00000000	      0.00000000	      0.00000000	      0.00000000	      0.00000000	      0.00000000	      0.00000000	     -0.00000000	     -0.00000000
      0.92000000	      1.05804040	     10.82771230	    -89.83394982	      0.27137723	      0.95079105	      0.76216036	     38.33605312	     -2.83455475	    -11.40284941	     25.40780129	      0.44344979	      4.13922793	      0.00000000	     -0.00000000	     -0.87640689	      4.06465630	      5.54900367	      4.28157012	      0.07472750	      5.07602888	      0.00000000	     -0.00000000	      3.56748532	      0.11467619	     -2.99606320	     -0.00000000	      0.00000000	     -0.00000000	      0.00000000	      0.00000000	      0.00000000	     -0.00000000	      0.00000000	      0.00000000	      0.00000000	      0.00000000	      0.00000000	      0.00000000	      0.00000000
      0.93000000	      1.43430424	     10.33903461	    -89.79146723	      0.27074399	      0.94668744	      0.78251489	     38.53522675	     -3.03672021	    -11.43839048	     21.54555376	      0.37604085	      4.20767171	      0.00000000	      0.00000000	     -3.36411308	      4.39978039	      5.72483939	      3.14606080	      0.05490912	      5.30516972	      0.00000000	      0.00000000	      2.81546890	     -0.30314445	     -2.99304290	      0.00000000	      0.00000000	      0.00000000	      0.00000000	      0.00000000	      0.00000000	      0.00000000	      0.00000000	      0.00000000	      0.00000000	      0.00000000	      0.00000000	      0.00000000	      0.00000000
      0.94000000	      1.85290275	     10.05344965	    -89.72436168	      0.27000626	      0.94197530	      0.80285967	     38.88284136	     -3.21816365	    -11.03544225	     17.90112366	      0.31243355	      4.47282626	     -0.00000000	     -0.00000000	     -5.45759843	      4.77067472	      5.90735738	      2.39534863	      0.04180672	      5.60582853	     -0.00000000	     -0.00000000	      2.30695803	     -0.78035273	     -2.98851022	     -0.00000000	      0.00000000	      0.00000000	      0.00000000	      0.00000000	     -0.00000000	      0.00000000	     -0.00000000	     -0.00000000	      0.00000000	      0.00000000	      0.00000000	      0.00000000	     -0.00000000
      0.95000000	      2.13964365	      9.54139182	    -89.57812067	      0.26922221	      0.93744205	      0.82364901	     38.85161329	     -3.33337578	    -10.68863371	     14.58041131	      0.25447618	      4.76628681	      0.00000000	      0.00000000	     -7.83275249	      4.96248251	      6.20305040	      1.62880702	      0.02842805	      5.81621725	      0.00000000	      0.00000000	      1.58122634	     -1.10659414	     -3.02707577	      0.00000000	      0.00000000	      0.00000000	      0.00000000	      0.00000000	      0.00000000	      0.00000000	      0.00000000	      0.00000000	      0.00000000	      0.00000000	      0.00000000	      0.00000000	      0.00000000
      0.96000000	      2.42385996	      9.27625353	    -89.29807221	      0.26853186	      0.93257558	      0.84451977	     38.99987506	     -3.51384373	     -9.98301970	     11.76817728	      0.20539344	      5.19203692	      0.00000000	      0.00000000	     -9.70214201	      5.12499290	      6.43686048	      1.35414175	      0.02363423	      6.07205117	      0.00000000	      0.00000000	      1.15183050	     -1.44838562	     -3.19225033	      0.00000000	      0.00000000	      0.00000000	      0.00000000	      0.00000000	      0.00000000	      0.00000000	      0.00000000	      0.00000000	      0.00000000	      0.00000000	      0.00000000	      0.00000000	      0.00000000
      0.97000000	      2.62688555	      9.16822970	    -88.80629020	      0.26809273	      0.92773252	      0.86557985	     39.20932485	     -3.79170894	     -9.29863942	      9.58444219	      0.16728007	      5.64607214	      0.00000000	      0.00000000	    -11.17564466	      5.16517938	      6.66844975	      1.53301867	      0.02675622	      6.29557661	      0.00000000	      0.00000000	      0.93432594	     -1.69623801	     -3.59974930	      0.00000000	      0.00000000	      0.00000000	      0.00000000	      0.00000000	      0.00000000	      0.00000000	      0.00000000	      0.00000000	      0.00000000	      0.00000000	      0.00000000	      0.00000000	      0.00000000
